<?xml version="1.0" encoding="UTF-8" standalone="no"?>
<!DOCTYPE svg PUBLIC "-//W3C//DTD SVG 1.1//EN"
 "http://www.w3.org/Graphics/SVG/1.1/DTD/svg11.dtd">
<!-- Generated by graphviz version 3.0.0 (20220226.1711)
 -->
<!-- Title: dependencies Pages: 1 -->
<svg width="773pt" height="247pt"
 viewBox="0.00 0.00 773.00 246.80" xmlns="http://www.w3.org/2000/svg" xmlns:xlink="http://www.w3.org/1999/xlink">
<g id="graph0" class="graph" transform="scale(1 1) rotate(0) translate(4 242.8)">
<title>dependencies</title>
<polygon fill="white" stroke="transparent" points="-4,4 -4,-242.8 769,-242.8 769,4 -4,4"/>
<text text-anchor="middle" x="382.5" y="-8.2" font-family="sans-serif" font-size="14.00">dependencies</text>
<g id="clust1" class="cluster">
<title>cluster_AppModule</title>
<polygon fill="none" stroke="black" stroke-dasharray="1,5" points="8,-32.8 8,-230.8 757,-230.8 757,-32.8 8,-32.8"/>
</g>
<g id="clust2" class="cluster">
<title>cluster_AppModule_declarations</title>
<polygon fill="none" stroke="black" points="358,-40.8 358,-92.8 749,-92.8 749,-40.8 358,-40.8"/>
</g>
<g id="clust6" class="cluster">
<title>cluster_AppModule_imports</title>
<polygon fill="none" stroke="black" points="206,-40.8 206,-92.8 350,-92.8 350,-40.8 206,-40.8"/>
</g>
<g id="clust8" class="cluster">
<title>cluster_AppModule_bootstrap</title>
<polygon fill="none" stroke="black" points="356,-170.8 356,-222.8 480,-222.8 480,-170.8 356,-170.8"/>
</g>
<g id="clust9" class="cluster">
<title>cluster_AppModule_providers</title>
<polygon fill="none" stroke="black" points="16,-40.8 16,-92.8 198,-92.8 198,-40.8 16,-40.8"/>
</g>
<!-- AlertBarComponent -->
<g id="node1" class="node">
<title>AlertBarComponent</title>
<polygon fill="#ffffb3" stroke="black" points="741.31,-84.8 610.69,-84.8 610.69,-48.8 741.31,-48.8 741.31,-84.8"/>
<text text-anchor="middle" x="676" y="-62.6" font-family="Times,serif" font-size="14.00">AlertBarComponent</text>
</g>
<!-- AppModule -->
<g id="node4" class="node">
<title>AppModule</title>
<polygon fill="#8dd3c7" stroke="black" points="459.66,-149.8 456.66,-153.8 435.66,-153.8 432.66,-149.8 376.34,-149.8 376.34,-113.8 459.66,-113.8 459.66,-149.8"/>
<text text-anchor="middle" x="418" y="-127.6" font-family="Times,serif" font-size="14.00">AppModule</text>
</g>
<!-- AlertBarComponent&#45;&gt;AppModule -->
<g id="edge1" class="edge">
<title>AlertBarComponent&#45;&gt;AppModule</title>
<path fill="none" stroke="black" d="M676,-85.08C676,-106.12 676,-137.8 676,-137.8 676,-137.8 469.74,-137.8 469.74,-137.8"/>
<polygon fill="black" stroke="black" points="469.74,-134.3 459.74,-137.8 469.74,-141.3 469.74,-134.3"/>
</g>
<!-- AppComponent -->
<g id="node2" class="node">
<title>AppComponent</title>
<polygon fill="#ffffb3" stroke="black" points="592.94,-84.8 487.06,-84.8 487.06,-48.8 592.94,-48.8 592.94,-84.8"/>
<text text-anchor="middle" x="540" y="-62.6" font-family="Times,serif" font-size="14.00">AppComponent</text>
</g>
<!-- AppComponent&#45;&gt;AppModule -->
<g id="edge2" class="edge">
<title>AppComponent&#45;&gt;AppModule</title>
<path fill="none" stroke="black" d="M540,-84.82C540,-102.17 540,-125.8 540,-125.8 540,-125.8 469.99,-125.8 469.99,-125.8"/>
<polygon fill="black" stroke="black" points="469.99,-122.3 459.99,-125.8 469.99,-129.3 469.99,-122.3"/>
</g>
<!-- FileComponent -->
<g id="node3" class="node">
<title>FileComponent</title>
<polygon fill="#ffffb3" stroke="black" points="469.61,-84.8 366.39,-84.8 366.39,-48.8 469.61,-48.8 469.61,-84.8"/>
<text text-anchor="middle" x="418" y="-62.6" font-family="Times,serif" font-size="14.00">FileComponent</text>
</g>
<!-- FileComponent&#45;&gt;AppModule -->
<g id="edge3" class="edge">
<title>FileComponent&#45;&gt;AppModule</title>
<path fill="none" stroke="black" d="M418,-84.91C418,-84.91 418,-103.79 418,-103.79"/>
<polygon fill="black" stroke="black" points="414.5,-103.79 418,-113.79 421.5,-103.79 414.5,-103.79"/>
</g>
<!-- AppComponent  -->
<g id="node6" class="node">
<title>AppComponent </title>
<polygon fill="#80b1d3" stroke="black" points="472.44,-214.8 363.56,-214.8 363.56,-178.8 472.44,-178.8 472.44,-214.8"/>
<text text-anchor="middle" x="418" y="-192.6" font-family="Times,serif" font-size="14.00">AppComponent </text>
</g>
<!-- AppModule&#45;&gt;AppComponent  -->
<g id="edge5" class="edge">
<title>AppModule&#45;&gt;AppComponent </title>
<path fill="none" stroke="black" stroke-dasharray="1,5" d="M418,-149.91C418,-149.91 418,-168.79 418,-168.79"/>
<polygon fill="black" stroke="black" points="414.5,-168.79 418,-178.79 421.5,-168.79 414.5,-168.79"/>
</g>
<!-- AppRoutingModule -->
<g id="node5" class="node">
<title>AppRoutingModule</title>
<polygon fill="#8dd3c7" stroke="black" points="342.28,-84.8 339.28,-88.8 318.28,-88.8 315.28,-84.8 213.72,-84.8 213.72,-48.8 342.28,-48.8 342.28,-84.8"/>
<text text-anchor="middle" x="278" y="-62.6" font-family="Times,serif" font-size="14.00">AppRoutingModule</text>
</g>
<!-- AppRoutingModule&#45;&gt;AppModule -->
<g id="edge4" class="edge">
<title>AppRoutingModule&#45;&gt;AppModule</title>
<path fill="none" stroke="black" d="M278,-84.82C278,-102.17 278,-125.8 278,-125.8 278,-125.8 366,-125.8 366,-125.8"/>
<polygon fill="black" stroke="black" points="366,-129.3 376,-125.8 366,-122.3 366,-129.3"/>
</g>
<!-- WebsocketService -->
<g id="node7" class="node">
<title>WebsocketService</title>
<ellipse fill="#fdb462" stroke="black" cx="107" cy="-66.8" rx="82.79" ry="18"/>
<text text-anchor="middle" x="107" y="-62.6" font-family="Times,serif" font-size="14.00">WebsocketService</text>
</g>
<!-- WebsocketService&#45;&gt;AppModule -->
<g id="edge6" class="edge">
<title>WebsocketService&#45;&gt;AppModule</title>
<path fill="none" stroke="black" d="M107,-85.08C107,-106.12 107,-137.8 107,-137.8 107,-137.8 366.06,-137.8 366.06,-137.8"/>
<polygon fill="black" stroke="black" points="366.06,-141.3 376.06,-137.8 366.06,-134.3 366.06,-141.3"/>
</g>
</g>
</svg>
